<svg id="Milpa-Logo" data-name="Milpa-Logo" xmlns="http://www.w3.org/2000/svg" xmlns:xlink="http://www.w3.org/1999/xlink" viewBox="0 0 50 50"><defs><clipPath id="clip-path"><path d="M41.48442,14.12078A17.43722,17.43722,0,0,1,49.43807,29.269,18.29923,18.29923,0,0,1,31.35021,47.13485a17.10094,17.10094,0,0,1-9.29344-2.71778L16.37517,40.761a17.10109,17.10109,0,0,0,9.29344,2.71776A18.29922,18.29922,0,0,0,43.75646,25.61293,17.43719,17.43719,0,0,0,35.80282,10.4647C37.50729,11.56153,39.77993,13.024,41.48442,14.12078Z" style="fill:none"/></clipPath><clipPath id="clip-path-2"><path d="M41.61619,19.05266q2.84082,1.828,5.68159,3.65608A16.72648,16.72648,0,0,1,48.4574,29.269Q45.617,27.44029,42.77579,25.613A16.72649,16.72649,0,0,0,41.61619,19.05266Z" style="fill:none"/></clipPath><clipPath id="clip-path-3"><path d="M42.7758,25.613q2.84084,1.828,5.6816,3.65609A17.28107,17.28107,0,0,1,31.37413,46.14332q-2.84087-1.828-5.68161-3.65608A17.28109,17.28109,0,0,0,42.7758,25.613Z" style="fill:none"/></clipPath><clipPath id="clip-path-4"><path d="M25.69184,42.48724h.00069q2.84085,1.828,5.6816,3.65609l-.00069,0A16.21358,16.21358,0,0,1,24.917,44.81566v0q-2.84087-1.828-5.68161-3.65608A16.21383,16.21383,0,0,0,25.69184,42.48724Z" style="fill:none"/></clipPath><clipPath id="clip-path-5"><path d="M22.59432,43.57632,16.9127,39.92024a16.15433,16.15433,0,0,0,8.77914,2.567l5.6816,3.65608A16.15427,16.15427,0,0,1,22.59432,43.57632Z" style="fill:none"/></clipPath><clipPath id="clip-path-6"><path d="M35.26071,11.30478l5.6816,3.6561a16.37659,16.37659,0,0,1,6.35548,7.74786h0q-2.84085-1.828-5.6816-3.65608A16.37665,16.37665,0,0,0,35.26071,11.30478Z" style="fill:none"/></clipPath><clipPath id="clip-path-7"><path d="M35.26115,11.30506l5.68158,3.65609A16.47347,16.47347,0,0,1,48.4574,29.269a17.28108,17.28108,0,0,1-17.084,16.8743l-5.6816-3.65608a17.28106,17.28106,0,0,0,17.084-16.87431A16.47349,16.47349,0,0,0,35.26115,11.30506Z" style="fill:none"/></clipPath><clipPath id="clip-path-8"><path d="M40.94275,14.96114a16.152,16.152,0,0,0-8.77864-2.56638A17.29291,17.29291,0,0,0,15.08016,29.269a16.47036,16.47036,0,0,0,7.51416,14.3073L16.9127,39.92024A16.47043,16.47043,0,0,1,9.39855,25.61293a17.29292,17.29292,0,0,1,17.084-16.87425,16.152,16.152,0,0,1,8.77864,2.56638C36.96562,12.40189,39.23825,13.86433,40.94275,14.96114Z" style="fill:none"/></clipPath><clipPath id="clip-path-9"><path d="M11.9051,34.84115q2.84085,1.828,5.6816,3.65609a16.35444,16.35444,0,0,0,4.33161,4.61954q-2.84112-1.82818-5.68212-3.65645A16.35445,16.35445,0,0,1,11.9051,34.84115Z" style="fill:none"/></clipPath><clipPath id="clip-path-10"><path d="M19.23541,41.15958l.66364.42706.70357.45274,1.47369.94832L23.55,43.936l1.36705.8797a16.123,16.123,0,0,1-2.32224-1.23907l-5.68161-3.65607A16.12351,16.12351,0,0,0,19.23541,41.15958Z" style="fill:none"/></clipPath><clipPath id="clip-path-11"><path d="M16.91317,39.92052q-.34455-.2217-.677-.46019,2.84106,1.82826,5.68211,3.65646.3321.23818.67647.45981C20.89028,42.47979,18.61764,41.01736,16.91317,39.92052Z" style="fill:none"/></clipPath><clipPath id="clip-path-12"><path d="M26.48251,8.73868a16.152,16.152,0,0,1,8.7782,2.5661l5.6816,3.6561a16.15179,16.15179,0,0,0-8.77819-2.56611C30.45963,11.298,28.187,9.83552,26.48251,8.73868Z" style="fill:none"/></clipPath><clipPath id="clip-path-13"><path d="M35.80282,10.4647l5.68159,3.65609a17.10591,17.10591,0,0,0-9.29707-2.71761L26.50574,7.7471A17.106,17.106,0,0,1,35.80282,10.4647Z" style="fill:none"/></clipPath><clipPath id="clip-path-14"><path d="M11.9051,34.84115a16.43728,16.43728,0,0,1-1.346-2.66473q2.84083,1.828,5.68159,3.65608a16.43817,16.43817,0,0,0,1.34605,2.66473Q14.74583,36.66921,11.9051,34.84115Z" style="fill:none"/></clipPath><clipPath id="clip-path-15"><path d="M9.76533,29.55193a16.91348,16.91348,0,0,1-.36677-3.939q2.84084,1.828,5.68159,3.65609a16.914,16.914,0,0,0,.36665,3.93832Q12.6055,31.38051,9.76533,29.55193Z" style="fill:none"/></clipPath><clipPath id="clip-path-16"><path d="M9.39856,25.613a17.16937,17.16937,0,0,1,1.4677-6.55908Q13.7071,20.88192,16.54785,22.71A17.16964,17.16964,0,0,0,15.08016,29.269Q12.23929,27.441,9.39856,25.613Z" style="fill:none"/></clipPath><clipPath id="clip-path-17"><path d="M10.86626,19.05387A17.21118,17.21118,0,0,1,26.48251,8.73868l5.6816,3.6561A17.21115,17.21115,0,0,0,16.54786,22.71Q13.707,20.88193,10.86626,19.05387Z" style="fill:none"/></clipPath><clipPath id="clip-path-18"><path d="M22.05677,44.41707,16.37517,40.761A17.44006,17.44006,0,0,1,8.41788,25.61293,18.3052,18.3052,0,0,1,26.50574,7.7471l5.6816,3.65608A18.30519,18.30519,0,0,0,14.09949,29.269,17.44,17.44,0,0,0,22.05677,44.41707Z" style="fill:none"/></clipPath></defs><circle cx="19.43091" cy="21.44194" r="16.5" style="opacity:0.4"/><g style="isolation:isolate"><ellipse cx="26.08718" cy="25.61296" rx="17.001" ry="16.56423" transform="translate(-9.56816 33.69142) rotate(-57.24049)" style="fill:#bfaa92"/><path d="M26.50574,7.7471A17.29252,17.29252,0,0,1,43.75646,25.61293,18.29922,18.29922,0,0,1,25.66861,43.47876,17.298,17.298,0,0,1,8.41788,25.61293,18.3052,18.3052,0,0,1,26.50574,7.7471Zm-.8139,34.74014a17.28106,17.28106,0,0,0,17.084-16.87431A16.33589,16.33589,0,0,0,26.48251,8.73868a17.29292,17.29292,0,0,0-17.084,16.87425A16.33584,16.33584,0,0,0,25.69184,42.48724" style="fill:#bfab93"/><g style="isolation:isolate"><g style="clip-path:url(#clip-path)"><g style="isolation:isolate"><path d="M41.48442,14.12078l-5.6816-3.65608a17.43719,17.43719,0,0,1,7.95364,15.14823A18.29922,18.29922,0,0,1,25.66861,43.47876q-.73331,0-1.45079-.05982L29.89943,47.075q.71711.05943,1.45078.05983A18.29923,18.29923,0,0,0,49.43807,29.269a17.43722,17.43722,0,0,0-7.95365-15.14824" style="fill:#675d50"/><path d="M29.89943,47.075l-5.68161-3.65608A17.05957,17.05957,0,0,1,16.37517,40.761l5.6816,3.65608A17.05957,17.05957,0,0,0,29.89943,47.075" style="fill:#6b6053"/></g></g></g><g style="isolation:isolate"><g style="clip-path:url(#clip-path-2)"><g style="isolation:isolate"><path d="M40.94275,14.96114l-5.68161-3.65608A16.47355,16.47355,0,0,1,42.7758,25.613a17.28107,17.28107,0,0,1-17.084,16.87429q-.693,0-1.371-.05654l5.6816,3.65608q.67766.05618,1.371.05654A17.28106,17.28106,0,0,0,48.4574,29.269a16.47357,16.47357,0,0,0-7.51465-14.30789" style="fill:#675c4f"/></g></g></g><g style="isolation:isolate"><g style="clip-path:url(#clip-path-3)"><g style="isolation:isolate"><path d="M40.94275,14.96114l-5.68161-3.65608A16.47355,16.47355,0,0,1,42.7758,25.613a17.28107,17.28107,0,0,1-17.084,16.87429q-.693,0-1.371-.05654l5.6816,3.65608q.67766.05618,1.371.05654A17.28106,17.28106,0,0,0,48.4574,29.269a16.47357,16.47357,0,0,0-7.51465-14.30789" style="fill:#675c4f"/></g></g></g><g style="isolation:isolate"><g style="clip-path:url(#clip-path-4)"><g style="isolation:isolate"><path d="M40.94275,14.96114l-5.68161-3.65608A16.47355,16.47355,0,0,1,42.7758,25.613a17.28107,17.28107,0,0,1-17.084,16.87429q-.693,0-1.371-.05654l5.6816,3.65608q.67766.05618,1.371.05654A17.28106,17.28106,0,0,0,48.4574,29.269a16.47357,16.47357,0,0,0-7.51465-14.30789" style="fill:#675c4f"/><path d="M30.00246,46.08678l-5.6816-3.65608a16.11408,16.11408,0,0,1-7.40814-2.51046l5.6816,3.65608a16.11412,16.11412,0,0,0,7.40814,2.51046" style="fill:#6b6052"/></g></g></g><g style="isolation:isolate"><g style="clip-path:url(#clip-path-5)"><g style="isolation:isolate"><path d="M22.59432,43.57632l-5.6816-3.65608a16.114,16.114,0,0,0,7.40814,2.51046l5.6816,3.65608a16.11408,16.11408,0,0,1-7.40814-2.51046" style="fill:#6b6053"/><path d="M30.00246,46.08678l-5.6816-3.65608q.67764.05616,1.371.05654l5.6816,3.65608q-.693,0-1.371-.05654" style="fill:#675d50"/></g></g></g><g style="isolation:isolate"><g style="clip-path:url(#clip-path-6)"><g style="isolation:isolate"><path d="M40.94275,14.96114l-5.68161-3.65608A16.47355,16.47355,0,0,1,42.7758,25.613a17.28107,17.28107,0,0,1-17.084,16.87429q-.693,0-1.371-.05654l5.6816,3.65608q.67766.05618,1.371.05654A17.28106,17.28106,0,0,0,48.4574,29.269a16.47357,16.47357,0,0,0-7.51465-14.30789" style="fill:#675c4f"/></g></g></g><g style="isolation:isolate"><g style="clip-path:url(#clip-path-7)"><g style="isolation:isolate"><path d="M31.37344,46.14332l-5.6816-3.65608a17.28106,17.28106,0,0,0,17.084-16.87431,16.47349,16.47349,0,0,0-7.51464-14.30787l5.6816,3.65608A16.47353,16.47353,0,0,1,48.4574,29.269a17.28108,17.28108,0,0,1-17.084,16.8743" style="fill:#675d50"/></g></g></g><g style="isolation:isolate"><g style="clip-path:url(#clip-path-8)"><g style="isolation:isolate"><path d="M40.94275,14.96114l-5.6816-3.65608a16.11047,16.11047,0,0,0-7.40693-2.50981l5.6816,3.65608a16.11047,16.11047,0,0,1,7.40693,2.50981" style="fill:#6b6053"/><path d="M33.53582,12.45133l-5.6816-3.65608q-.678-.0562-1.37171-.05657a17.29292,17.29292,0,0,0-17.084,16.87425,16.4704,16.4704,0,0,0,7.51417,14.30731l5.6816,3.65608A16.47036,16.47036,0,0,1,15.08016,29.269a17.29291,17.29291,0,0,1,17.084-16.87426q.6934,0,1.37171.05657" style="fill:#675d50"/></g></g></g><g style="isolation:isolate"><g style="clip-path:url(#clip-path-9)"><g style="isolation:isolate"><path d="M22.59432,43.57632l-5.6816-3.65608A16.47034,16.47034,0,0,1,9.39856,25.613a17.29293,17.29293,0,0,1,17.084-16.87427l5.68161,3.65609A17.29293,17.29293,0,0,0,15.08016,29.269a16.47037,16.47037,0,0,0,7.51416,14.30729" style="fill:#675c4f"/></g></g></g><g style="isolation:isolate"><g style="clip-path:url(#clip-path-10)"><g style="isolation:isolate"><path d="M30.00246,46.08678l-5.6816-3.65608a16.11408,16.11408,0,0,1-7.40814-2.51046l5.6816,3.65608a16.11412,16.11412,0,0,0,7.40814,2.51046" style="fill:#6b6052"/></g></g></g><g style="isolation:isolate"><g style="clip-path:url(#clip-path-11)"><g style="isolation:isolate"><path d="M22.59432,43.57632l-5.6816-3.65608A16.47034,16.47034,0,0,1,9.39856,25.613a17.29293,17.29293,0,0,1,17.084-16.87427l5.68161,3.65609A17.29293,17.29293,0,0,0,15.08016,29.269a16.47037,16.47037,0,0,0,7.51416,14.30729" style="fill:#675c4f"/></g></g></g><g style="isolation:isolate"><g style="clip-path:url(#clip-path-12)"><g style="isolation:isolate"><path d="M32.16412,12.39477,26.48251,8.73868q.69341,0,1.37171.05657l5.68161,3.65608q-.678-.05619-1.37171-.05656" style="fill:#675c4f"/><path d="M33.53583,12.45133,27.85422,8.79525a16.11039,16.11039,0,0,1,7.40692,2.50981l5.68161,3.65608a16.11047,16.11047,0,0,0-7.40692-2.50981" style="fill:#6b6052"/></g></g></g><g style="isolation:isolate"><g style="clip-path:url(#clip-path-13)"><g style="isolation:isolate"><path d="M32.18734,11.40318,26.50574,7.7471q.73452,0,1.45308.05992l5.68161,3.65608q-.71819-.05952-1.45309-.05992" style="fill:#675d50"/><path d="M33.64043,11.4631,27.95882,7.807a17.06127,17.06127,0,0,1,7.844,2.65768l5.6816,3.65608a17.06127,17.06127,0,0,0-7.844-2.65768" style="fill:#6b6053"/></g></g></g><g style="isolation:isolate"><g style="clip-path:url(#clip-path-14)"><g style="isolation:isolate"><path d="M22.59432,43.57632l-5.6816-3.65608A16.47034,16.47034,0,0,1,9.39856,25.613a17.29293,17.29293,0,0,1,17.084-16.87427l5.68161,3.65609A17.29293,17.29293,0,0,0,15.08016,29.269a16.47037,16.47037,0,0,0,7.51416,14.30729" style="fill:#675c4f"/></g></g></g><g style="isolation:isolate"><g style="clip-path:url(#clip-path-15)"><g style="isolation:isolate"><path d="M22.59432,43.57632l-5.6816-3.65608A16.47034,16.47034,0,0,1,9.39856,25.613a17.29293,17.29293,0,0,1,17.084-16.87427l5.68161,3.65609A17.29293,17.29293,0,0,0,15.08016,29.269a16.47037,16.47037,0,0,0,7.51416,14.30729" style="fill:#675c4f"/></g></g></g><g style="isolation:isolate"><g style="clip-path:url(#clip-path-16)"><g style="isolation:isolate"><path d="M22.59432,43.57632l-5.6816-3.65608A16.47034,16.47034,0,0,1,9.39856,25.613a17.29293,17.29293,0,0,1,17.084-16.87427l5.68161,3.65609A17.29293,17.29293,0,0,0,15.08016,29.269a16.47037,16.47037,0,0,0,7.51416,14.30729" style="fill:#675c4f"/></g></g></g><g style="isolation:isolate"><g style="clip-path:url(#clip-path-17)"><g style="isolation:isolate"><path d="M22.59432,43.57632l-5.6816-3.65608A16.47034,16.47034,0,0,1,9.39856,25.613a17.29293,17.29293,0,0,1,17.084-16.87427l5.68161,3.65609A17.29293,17.29293,0,0,0,15.08016,29.269a16.47037,16.47037,0,0,0,7.51416,14.30729" style="fill:#675c4f"/></g></g></g><path d="M32.18734,11.40318A17.29253,17.29253,0,0,1,49.43807,29.269,18.29923,18.29923,0,0,1,31.35021,47.13485,17.298,17.298,0,0,1,14.09949,29.269,18.30519,18.30519,0,0,1,32.18734,11.40318Zm-.8139,34.74014A17.28108,17.28108,0,0,0,48.4574,29.269,16.33591,16.33591,0,0,0,32.16411,12.39476,17.29291,17.29291,0,0,0,15.08016,29.269a16.33582,16.33582,0,0,0,16.29328,16.8743" style="fill:#bfab93"/><ellipse cx="31.76878" cy="29.26904" rx="17.001" ry="16.56423" transform="translate(-10.03553 40.14708) rotate(-57.24049)" style="fill:#bfaa92"/><g style="isolation:isolate"><g style="clip-path:url(#clip-path-18)"><g style="isolation:isolate"><path d="M22.05677,44.41707,16.37517,40.761A17.44,17.44,0,0,1,8.41788,25.61293,18.3052,18.3052,0,0,1,26.50574,7.7471l5.6816,3.65608A18.30519,18.30519,0,0,0,14.09949,29.269a17.44,17.44,0,0,0,7.95728,15.14805" style="fill:#675d50"/></g></g></g></g><g id="nopal"><g id="Tuna_6" data-name="Tuna 6"><path d="M24.41034,22.51551a1.92533,1.92533,0,0,0,2.3105,1.33154,1.92535,1.92535,0,0,0,.63133-2.59092c-.06686-.15619-.59074-1.40508-1.32989-1.75133-.15192-.07115-.46173.18681-.98061.4198-.42609.19132-.8907.20054-.98061.41979A3.10275,3.10275,0,0,0,24.41034,22.51551Z" style="fill:#ff7bac"/><path d="M24.52661,22.835a1.92535,1.92535,0,0,0,2.31051,1.33153,1.92534,1.92534,0,0,0,.63133-2.59091c-.06687-.1562-.59074-1.40508-1.32989-1.75133-.15192-.07116-.46174.18681-.98062.4198-.42609.19132-.89069.20054-.98061.41979A3.10287,3.10287,0,0,0,24.52661,22.835Z" style="fill:#d91a60"/></g><g id="Tuna_5" data-name="Tuna 5"><path d="M28.00214,19.6051c.28761,1.1426,1.21544,1.894,2.07239,1.67829A1.92533,1.92533,0,0,0,31.10541,18.824a3.77936,3.77936,0,0,0-1.038-1.93866c-.13884-.09416-.48536.11188-1.03442.26037-.45088.122-.91115.058-1.03442.26038A3.10285,3.10285,0,0,0,28.00214,19.6051Z" style="fill:#ff7bac"/><path d="M28.06673,19.93893c.2876,1.14259,1.21544,1.894,2.07239,1.67828A1.92534,1.92534,0,0,0,31.17,19.1578a3.77937,3.77937,0,0,0-1.038-1.93865c-.13884-.09416-.48537.11187-1.03442.26037-.45088.12194-.91115.058-1.03443.26038A3.10284,3.10284,0,0,0,28.06673,19.93893Z" style="fill:#d91a60"/></g><g id="Tuna_7" data-name="Tuna 7"><path d="M21.67294,26.65866a1.92534,1.92534,0,0,0,2.53566.82576,1.92535,1.92535,0,0,0,.08275-2.66544c-.09768-.139-.86814-1.25282-1.66286-1.439-.16333-.03825-.41321.27813-.8728.61323-.3774.27518-.83009.38013-.8728.61323A3.10288,3.10288,0,0,0,21.67294,26.65866Z" style="fill:#ff7bac"/><path d="M21.85269,26.94728a1.92533,1.92533,0,0,0,2.53565.82576,1.92535,1.92535,0,0,0,.08275-2.66544c-.09768-.139-.86813-1.25282-1.66285-1.439-.16334-.03826-.41321.27812-.8728.61322-.37741.27518-.83009.38013-.8728.61323A3.10282,3.10282,0,0,0,21.85269,26.94728Z" style="fill:#d91a60"/></g><path id="Nopal_2" data-name="Nopal 2" d="M44.0902,31.32305c0,4.33609-1.06669,4.53344-3.73341,7.7335C38.064,41.80792,37.69924,42.25633,33.69,42.25662c-4.24417.00031-3.90332-.43657-6.66681-3.20007-2.66673-2.66672-3.87743-3.59485-3.73342-7.7335.1711-4.91776,4.14495-10.93356,10.40023-10.93356A10.67691,10.67691,0,0,1,44.0902,31.32305Z" style="fill:#324001"/><path id="Nopal_1" data-name="Nopal 1" d="M43.02351,31.32305c0,4.33609-1.06669,4.53344-3.73341,7.7335-2.29281,2.75137-2.65755,3.19978-6.66681,3.20007-4.24417.00031-3.90332-.43657-6.66681-3.20007-2.66673-2.66672-3.87743-3.59485-3.73342-7.7335.1711-4.91776,4.145-10.93356,10.40023-10.93356A10.67691,10.67691,0,0,1,43.02351,31.32305Z" style="fill:#7c8c03"/><g id="Tuna_1" data-name="Tuna 1"><path d="M45.47893,26.65866a1.92533,1.92533,0,0,1-2.53565.82576,1.92535,1.92535,0,0,1-.08275-2.66544c.09768-.139.86813-1.25282,1.66285-1.439.16334-.03825.41322.27813.8728.61323.37741.27518.8301.38013.8728.61323A3.10277,3.10277,0,0,1,45.47893,26.65866Z" style="fill:#ff7bac"/><path d="M46.0892,24.89505c-.04271-.23308-.49532-.338-.8728-.61323-.45952-.3351-.70939-.65148-.87281-.61323-.79468.18617-1.56514,1.3-1.66279,1.439a2.40148,2.40148,0,0,0-.44663,1.799,2.23887,2.23887,0,0,1,.66291.93579,1.98225,1.98225,0,0,0,2.40213-.8951A3.1028,3.1028,0,0,0,46.0892,24.89505Z" style="fill:#d91a60"/></g><g id="Tuna_2" data-name="Tuna 2"><path d="M43.23989,22.51551a1.92534,1.92534,0,0,1-2.31051,1.33154,1.92535,1.92535,0,0,1-.63133-2.59092c.06687-.15619.59074-1.40508,1.32989-1.75133.15192-.07115.46174.18681.98062.4198.42609.19132.89069.20054.98061.41979A3.10287,3.10287,0,0,1,43.23989,22.51551Z" style="fill:#ff7bac"/><path d="M43.47287,20.66391c-.08991-.21925-.5545-.22849-.98062-.4198-.51889-.233-.82866-.491-.98062-.41981-.73908.34627-1.263,1.59516-1.32985,1.75134A2.40853,2.40853,0,0,0,40.1086,23.406a2.09776,2.09776,0,0,1,.92125.82072A2.01819,2.01819,0,0,0,43.12364,22.835,3.1027,3.1027,0,0,0,43.47287,20.66391Z" style="fill:#d91a60"/></g><g id="Tuna_3" data-name="Tuna 3"><path d="M39.56647,19.6051c-.2876,1.1426-1.21544,1.894-2.07239,1.67829A1.92535,1.92535,0,0,1,36.4632,18.824a3.77936,3.77936,0,0,1,1.038-1.93866c.13884-.09416.48537.11188,1.03442.26037.45088.122.91115.058,1.03443.26038A3.10283,3.10283,0,0,1,39.56647,19.6051Z" style="fill:#ff7bac"/><path d="M39.50547,17.73988c-.12331-.20238-.58361-.13844-1.03447-.26035-.549-.14851-.89559-.35457-1.03446-.26039a3.77911,3.77911,0,0,0-1.03791,1.93865,2.26193,2.26193,0,0,0,.41472,2.08145,2.265,2.265,0,0,1,1.16858.381,2.1776,2.1776,0,0,0,1.52-1.68132A3.10358,3.10358,0,0,0,39.50547,17.73988Z" style="fill:#d91a60"/></g><g id="Tuna_4" data-name="Tuna 4"><path d="M35.315,18.14738c0,1.17823-.71636,2.13338-1.6,2.13338s-1.6-.95515-1.6-2.13338A3.77937,3.77937,0,0,1,32.6483,16.014c.11166-.1252.498-.01,1.06669,0,.467.0082.89775-.16617,1.06669,0A3.10281,3.10281,0,0,1,35.315,18.14738Z" style="fill:#ff7bac"/><path d="M33.17851,20.4805a2.574,2.574,0,0,1,1.0745.015,2.16736,2.16736,0,0,0,1.08088-2.00864,3.10281,3.10281,0,0,0-.53334-2.13338c-.169-.16618-.59969.00821-1.06669,0-.5687-.01-.955-.12519-1.06669,0a3.77938,3.77938,0,0,0-.53335,2.13338A2.189,2.189,0,0,0,33.17851,20.4805Z" style="fill:#d91a60"/></g><g id="Espinas_2" data-name="Espinas 2"><ellipse cx="26.18418" cy="27.0518" rx="0.32565" ry="0.25352" transform="translate(-9.08753 40.21683) rotate(-66.4016)" style="fill:#4d4d4d;stroke:#4d4d4d;stroke-miterlimit:10;stroke-width:0.5px"/><ellipse cx="26.84072" cy="39.31269" rx="0.21183" ry="0.2854" transform="translate(-12.22509 12.11391) rotate(-20.82993)" style="fill:#4d4d4d;stroke:#4d4d4d;stroke-miterlimit:10;stroke-width:0.5px"/><ellipse cx="29.17199" cy="36.50736" rx="0.1626" ry="0.20246" transform="translate(-7.74895 7.86061) rotate(-13.56496)" style="fill:#4d4d4d;stroke:#4d4d4d;stroke-miterlimit:10;stroke-width:0.5px"/><ellipse cx="36.39351" cy="37.77439" rx="0.22575" ry="0.27107" transform="translate(-3.87631 4.16288) rotate(-6.2163)" style="fill:#4d4d4d;stroke:#4d4d4d;stroke-miterlimit:10;stroke-width:0.5px"/><ellipse cx="33.21668" cy="33.9588" rx="0.1707" ry="0.24237" style="fill:#4d4d4d;stroke:#4d4d4d;stroke-miterlimit:10;stroke-width:0.5px"/><ellipse cx="32.73872" cy="38.56377" rx="0.19443" ry="0.23051" transform="translate(-0.80091 0.69451) rotate(-1.20072)" style="fill:#4d4d4d;stroke:#4d4d4d;stroke-miterlimit:10;stroke-width:0.5px"/><ellipse cx="37.16118" cy="34.15138" rx="0.17851" ry="0.14462" transform="translate(0.25905 68.58251) rotate(-85.59927)" style="fill:#4d4d4d;stroke:#4d4d4d;stroke-miterlimit:10;stroke-width:0.5px"/><ellipse cx="36.08171" cy="30.50047" rx="0.19743" ry="0.14106" transform="translate(2.17134 63.39813) rotate(-84.33994)" style="fill:#4d4d4d;stroke:#4d4d4d;stroke-miterlimit:10;stroke-width:0.5px"/><ellipse cx="38.60102" cy="28.02228" rx="0.17729" ry="0.21016" transform="translate(-0.5372 0.75532) rotate(-1.11335)" style="fill:#4d4d4d;stroke:#4d4d4d;stroke-miterlimit:10;stroke-width:0.5px"/><ellipse cx="40.46272" cy="31.57553" rx="0.16239" ry="0.20197" style="fill:#4d4d4d;stroke:#4d4d4d;stroke-miterlimit:10;stroke-width:0.5px"/><ellipse cx="41.93967" cy="34.54849" rx="0.19069" ry="0.35369" transform="translate(-2.66102 3.51122) rotate(-4.6468)" style="fill:#4d4d4d;stroke:#4d4d4d;stroke-miterlimit:10;stroke-width:0.5px"/><ellipse cx="41.21559" cy="27.29495" rx="0.14926" ry="0.3452" transform="translate(-6.94908 16.16375) rotate(-20.50145)" style="fill:#4d4d4d;stroke:#4d4d4d;stroke-miterlimit:10;stroke-width:0.5px"/><ellipse cx="34.9597" cy="24.5697" rx="0.14028" ry="0.16551" transform="translate(-1.84587 46.27686) rotate(-65.6308)" style="fill:#4d4d4d;stroke:#4d4d4d;stroke-miterlimit:10;stroke-width:0.5px"/><ellipse cx="36.69306" cy="22.70402" rx="0.16313" ry="0.26484" transform="translate(1.82634 48.12379) rotate(-67.84148)" style="fill:#4d4d4d;stroke:#4d4d4d;stroke-miterlimit:10;stroke-width:0.5px"/><ellipse cx="25.76126" cy="34.05566" rx="0.26298" ry="0.19053" transform="translate(-12.10043 53.80212) rotate(-80.4384)" style="fill:#4d4d4d;stroke:#4d4d4d;stroke-miterlimit:10;stroke-width:0.5px"/><ellipse cx="25.21502" cy="31.14725" rx="0.26298" ry="0.19053" transform="translate(-9.68794 50.83817) rotate(-80.4384)" style="fill:#4d4d4d;stroke:#4d4d4d;stroke-miterlimit:10;stroke-width:0.5px"/><ellipse cx="29.4739" cy="31.45128" rx="0.22807" ry="0.1754" transform="translate(-8.60655 51.64467) rotate(-74.79515)" style="fill:#4d4d4d;stroke:#4d4d4d;stroke-miterlimit:10;stroke-width:0.5px"/><ellipse cx="31.70445" cy="28.4887" rx="0.29969" ry="0.19712" transform="translate(0.42012 57.43812) rotate(-84.72203)" style="fill:#4d4d4d;stroke:#4d4d4d;stroke-miterlimit:10;stroke-width:0.5px"/><ellipse cx="22.97963" cy="32.31951" rx="0.22286" ry="0.45926" transform="translate(-0.99691 0.73249) rotate(-1.78742)" style="fill:#4d4d4d;stroke:#4d4d4d;stroke-miterlimit:10;stroke-width:0.5px"/><ellipse cx="23.67085" cy="26.98933" rx="0.45211" ry="0.20767" transform="translate(-7.27003 45.19358) rotate(-79.21847)" style="fill:#4d4d4d;stroke:#4d4d4d;stroke-miterlimit:10;stroke-width:0.5px"/><ellipse cx="29.47678" cy="23.52574" rx="0.1823" ry="0.22113" transform="translate(-2.56195 3.62949) rotate(-6.75322)" style="fill:#4d4d4d;stroke:#4d4d4d;stroke-miterlimit:10;stroke-width:0.5px"/><ellipse cx="31.58592" cy="25.24925" rx="0.15178" ry="0.17786" transform="translate(-0.60862 0.78077) rotate(-1.4027)" style="fill:#4d4d4d;stroke:#4d4d4d;stroke-miterlimit:10;stroke-width:0.5px"/></g><g id="Espinas_1" data-name="Espinas 1"><path d="M26.13092,27.03348a.61987.61987,0,0,1-.63353-.40465c-.09008-.185-.40127-.54049-.3215-.65486a5.01813,5.01813,0,0,1,.92113.63038c.03239.09816.15417.309.0339.42913Z" style="fill:#fcee21"/><path d="M31.60937,28.3996c-.65431.70536-1.69532-.09227-2.37932.58145l-.04048-.02939a1.486,1.486,0,0,1,1.13855-.67077c.30209-.10791,1.18569-.06386,1.28125.11871Z" style="fill:#fcee21"/><path d="M22.96435,32.34047a2.198,2.198,0,0,1-.75837,1.29547c-.34126.31145-.71111.89107-1.07756,1.05465.49836-.72584.95738-2.14942,1.83593-2.35012Z" style="fill:#fcee21"/><path d="M23.53863,26.85656a.68227.68227,0,0,1-.80169.02844c-.21124-.10923-.69068-.208-.72833-.3647a5.60864,5.60864,0,0,1,1.19568-.00592c.09367.06453.34241.1639.33434.34218Z" style="fill:#fcee21"/><path d="M33.16534,33.84313a.79028.79028,0,0,1-.479-.72709c-.02777-.26249-.21773-.74026-.10757-.87552a6.60093,6.60093,0,0,1,.68372,1.10454c-.00153.119.0579.407-.09716.49807Z" style="fill:#fcee21"/><path d="M33.15185,34.11375a.85936.85936,0,0,1-.18177.89351c-.15791.20228-.38032.72316-.551.74013a7.2308,7.2308,0,0,1,.30709-1.326c.084-.08638.25238-.35132.42571-.30765Z" style="fill:#fcee21"/><path d="M41.9115,34.4752a2.47163,2.47163,0,0,1,1.61114-.5812,5.53352,5.53352,0,0,1,1.716-.02835c-1.03991.12637-2.38018.92147-3.32717.60955Z" style="fill:#fcee21"/><path d="M36.55365,22.72776a1.72307,1.72307,0,0,1-1.305-.21335c-.32766-.17989-1.03165-.36384-1.18886-.596.7355.17443,2.1305.10373,2.49391.80933Z" style="fill:#fcee21"/><path d="M41.2406,27.17491a.59515.59515,0,0,1,.69384-.264c.211.03994.673-.00292.744.13273a4.81,4.81,0,0,1-1.0455.359c-.10384-.03417-.34765-.05626-.39235-.22767Z" style="fill:#fcee21"/><path d="M41.17621,27.35946a.47621.47621,0,0,1,.09294.64538c-.084.16275-.16265.57576-.30366.59414a3.72508,3.72508,0,0,1-.10239-.96332c.057-.082.14166-.28069.31311-.2762Z" style="fill:#fcee21"/><path d="M29.45355,23.49726a2.21443,2.21443,0,0,1-1.347.87052,5.06441,5.06441,0,0,1-1.56371.37455c.90788-.33874,1.99011-1.38123,2.91076-1.24507Z" style="fill:#fcee21"/><path d="M29.56158,23.291a.40806.40806,0,0,1-.03033-.44426c.05621-.12626.06841-.34551.168-.41843-.01022.28525.17487.69-.13766.86269Z" style="fill:#fcee21"/><path d="M31.58551,25.19409a.66893.66893,0,0,1,.698.37718c.12381.19871.48277.52513.435.67845a5.48546,5.48546,0,0,1-1.02245-.59395c-.04713-.10226-.2084-.31332-.11056-.46168Z" style="fill:#fcee21"/><path d="M34.90668,24.59811a.42391.42391,0,0,1-.43622-.12841c-.10209-.09774-.307-.18534-.34392-.3058.26948.11081.72009.078.78014.43421Z" style="fill:#fcee21"/><path d="M35.02466,24.66892a.66069.66069,0,0,1-.30379.72683c-.18437.14125-.47383.52847-.6293.49456a5.41255,5.41255,0,0,1,.48608-1.06858c.09661-.05635.29039-.23584.447-.15281Z" style="fill:#fcee21"/><path d="M36.05615,30.51022a2.44644,2.44644,0,0,1,1.51323.88057,5.112,5.112,0,0,1,1.10412,1.36176c-.75835-.798-2.19007-1.29968-2.61735-2.24233Z" style="fill:#fcee21"/><path d="M38.64734,27.887a.49044.49044,0,0,1-.63873.17956c-.17614-.06165-.60114-.08189-.64159-.22035a3.85286,3.85286,0,0,1,.95835-.232c.0906.04569.30217.1012.322.27276Z" style="fill:#fcee21"/><path d="M40.46649,31.44923a2.53913,2.53913,0,0,1,1.3592-.87662,7.12829,7.12829,0,0,1,1.53836-.51913c-.84945.4651-1.93148,1.56815-2.89756,1.39575Z" style="fill:#fcee21"/><path d="M37.04858,34.22653a.59213.59213,0,0,1-.61729-.40852c-.09011-.19425-.39325-.54434-.32406-.68044a4.78157,4.78157,0,0,1,.89854.63822c.03256.104.15615.31487.04281.45074Z" style="fill:#fcee21"/><path d="M29.54162,31.47029a.61541.61541,0,0,1-.519.55068c-.21217.05967-.61262.30627-.73878.21655a4.99742,4.99742,0,0,1,.799-.79482c.1102-.01583.34134-.10682.45871.02759Z" style="fill:#fcee21"/><path d="M29.23382,31.34935a.81021.81021,0,0,1-.72783-.49956c-.12849-.23611-.48963-.60809-.44071-.77792a6.7808,6.7808,0,0,1,1.06494.77538c.04461.11187.21245.35787.1036.5021Z" style="fill:#fcee21"/><path d="M25.18469,31.194a2.55677,2.55677,0,0,1-1.59216-.31524,7.1768,7.1768,0,0,1-1.47279-.69683c.93777.25677,2.48594.21555,3.06495,1.01207Z" style="fill:#fcee21"/><path d="M25.34,31.06378a.33312.33312,0,0,1,.24921-.31006c.11487-.04259.26545-.17817.37372-.15359-.18.18155-.30537.57384-.62293.46365Z" style="fill:#fcee21"/><path d="M25.70263,33.86282a2.79582,2.79582,0,0,1,1.69855.05732,7.85571,7.85571,0,0,1,1.644.45343c-1.01734-.10649-2.58681.18853-3.34258-.51075Z" style="fill:#fcee21"/><path d="M29.19824,36.47817a1.79912,1.79912,0,0,1-1.32123.28964c-.385-.0455-1.1.0499-1.35568-.10874.7674-.112,2.0567-.70072,2.67691-.1809Z" style="fill:#fcee21"/><path d="M29.27923,36.38651a.55044.55044,0,0,1,.29408-.792c.162-.12175.75926-.31093.82973-.1336a1.48324,1.48324,0,0,0-.737.70982c-.07975.0364-.23738.237-.38676.21578Z" style="fill:#fcee21"/><path d="M26.67828,39.24211a1.42186,1.42186,0,0,1-1.19036-.10883c-.30527-.15147-.96856-.29165-1.09614-.49743.66985.10846,1.96227-.05085,2.2865.60626Z" style="fill:#fcee21"/><path d="M26.89252,39.26148a1.39192,1.39192,0,0,1,1.08355-.472c.33559-.01283.98543-.20589,1.18728-.08585-.63146.22461-1.67976.98033-2.27083.55789Z" style="fill:#fcee21"/><path d="M32.693,38.3824c.46853-.9451,2.23672-1.83527,3.16608-2.10495-1.048.61431-2.00735,1.91638-3.16608,2.10495Z" style="fill:#fcee21"/><path d="M36.39068,37.72767a3.18341,3.18341,0,0,1-1.69811.23808c.54912-.09877,1.16391-.46165,1.69811-.23808Z" style="fill:#fcee21"/><path d="M36.48706,37.72116a1.18357,1.18357,0,0,1,.934.55075c.191.25677.67472.6405.678.85794-.50508-.34289-1.665-.7338-1.612-1.40869Z" style="fill:#fcee21"/><path d="M32.7373,38.76779c-.07134.5252-.52255.46883-.80582.90962-.14015-.07565.06082-.54231.14435-.68384.12445-.371.57378-.39173.66147-.22578Z" style="fill:#fcee21"/><path d="M41.86224,34.78133c-.67367.1545-1.31-.05383-1.77385.60134-.12653-.42644.80752-1.14617,1.29464-1.01517.16085.04523.53218.20773.47921.41383Z" style="fill:#fcee21"/></g></g><g id="M"><path d="M27.59364,25.44231s3.25215-.89195,3.25215-.6297c0,.26251.8396,1.31149,1.36409.2099s3.61987-.918,4.56416-.918-.31511,6.53113-.31511,8.07856a2.23989,2.23989,0,0,0,1.28545,2.07218,27.33692,27.33692,0,0,1-.28855,4.24931c-.23594.20964-1.049.1573-2.649-.6034s-1.78389-5.71809-1.73128-6.39987c.0526-.68205-1.28545-.34116-1.86254-.23621-.57658.10495-.05209,4.354-.05209,4.66885s-2.12452,2.17713-2.12452,2.17713a3.88568,3.88568,0,0,1-1.548-.682C27.12123,37.00949,27.67229,25.49466,27.59364,25.44231Z" style="fill:#fff"/><path d="M27.37488,33.84431a38.185,38.185,0,0,1,.07865-5.74439,17.32971,17.32971,0,0,1,.2099-2.59667V25.372a5.28756,5.28756,0,0,0,1.36409-.89169c.91773-.70809,2.885-2.12452,2.885-.10495.10521.28855.31511.62944.4198.89195a2.755,2.755,0,0,1,.34116-.682c.91772-.62944,1.57347-1.41644,2.54432-1.41644a12.38722,12.38722,0,0,0,1.78337.07865,1.26562,1.26562,0,0,1,.813.10495c-.026,3.436-1.02294,6.26889-.18334,9.65255.23595,1.12763.86565.60314,1.31149,1.23258a30.45208,30.45208,0,0,0-1.07554,4.59021c-2.12453.39349-2.88548-.5508-3.69852-1.67869-.65574-.918-.99638-3.93446-.99638-6.059V30.01481a4.95762,4.95762,0,0,1-.44584.918c-.36772.49819-1.2068.41954-1.73129.2099a2.236,2.236,0,0,1-.10521.44585c-.41928,1.44248.49845,2.99017.31511,4.4066-.07864.5508-1.6,1.91463-1.836,2.518l-1.65264-.787a1.02389,1.02389,0,0,0-.1573-.05235C27.89937,36.441,27.48009,35.1032,27.37488,33.84431Zm1.91463,4.3277c.28855-1.52112-.34063-7.21291.525-9.28509.86564.60313.813,1.15393,1.10159,1.80967,1.33752,1.02294,1.88858-.52449,2.46567-1.44248.05209.05235.1573.07865.1573.23594a13.00409,13.00409,0,0,0,.13073,4.27536,11.499,11.499,0,0,0,.525,2.83287,5.71841,5.71841,0,0,0,2.07192,1.94093,2.98574,2.98574,0,0,0,1.28545.0526,22.7734,22.7734,0,0,0-.18386-2.43937c-.39324,0-.52449-.02631-.68179-.1573v.026c-.787-.52449-.761-1.91462-.761-2.83261.02656-2.96412-.262-5.66575.4198-8.36737-.28855-.026-.91773-.026-1.57347-.026a14.78666,14.78666,0,0,0-1.9938.07865c-.52449,1.02294-.787,2.85891-1.31148,3.7769a.26441.26441,0,0,1-.23594-.07864c-.39324-1.02294-.28855-2.15083-.65575-3.17377a6.77473,6.77473,0,0,1-2.59693.28855c.2099,3.09512-.62918,6.21628-.07865,9.3114a6.8949,6.8949,0,0,1,.02657,2.54432.09673.09673,0,0,1,.026.07865A7.08527,7.08527,0,0,0,29.28951,38.172Z" style="fill:#d91a60"/></g></svg>
